<svg width="160" height="80" viewBox="0 0 160 80" fill="none" xmlns="http://www.w3.org/2000/svg">
<rect width="162.478" height="44.0788" transform="matrix(0.98475 -0.173978 0 1 0 29.8912)" fill="black"/>
<path d="M23.2068 44.8063C24.5681 47.9834 27.9336 49.6449 33.3033 49.7906C32.4146 50.9652 31.7245 52.0951 31.2329 53.1804C30.7413 54.2656 30.1836 55.6889 29.5596 57.4504C27.5177 57.1967 25.5419 56.4994 23.6322 55.3584C21.7415 54.1948 20.2195 52.5917 19.0661 50.5491C17.9128 52.98 16.3813 55.113 14.4717 56.948C12.5621 58.783 10.5957 60.1864 8.57265 61.1582C7.94871 59.6172 7.39095 58.391 6.89936 57.4794C6.40777 56.5679 5.71766 55.6818 4.82902 54.8212C10.1798 52.8199 13.5263 49.9726 14.8687 46.2794L6.13362 47.8227V41.4579L15.5778 39.7894L15.6061 37.1348L22.5545 35.9648L22.5262 38.5618L31.9987 36.8883V43.2531L23.2068 44.8063ZM61.3804 45.8669C60.7376 47.4397 60.1137 49.3643 59.5086 51.6408C57.599 51.191 55.9163 50.4515 54.4604 49.4223C52.9289 51.0561 51.0098 52.4799 48.7032 53.6939C48.4006 52.5953 48.1359 51.7685 47.9091 51.2133L46.3209 52.0987C45.5646 49.6404 44.9784 46.9023 44.5625 43.8846L48.0792 42.8313C48.2494 44.318 48.5897 45.7747 49.1002 47.2013C49.7052 46.8448 50.2914 46.4053 50.8586 45.8827C50.0645 44.7749 49.4122 43.5462 48.9017 42.1964L44.2505 43.0181V53.2421C44.2505 53.6837 43.7873 54.0824 42.8608 54.438C41.9533 54.7904 40.3556 55.1686 38.0679 55.5728C38.0679 55.1696 38.0301 54.6963 37.9544 54.1529C37.8788 53.5902 37.7654 53.0631 37.6141 52.5714L37.132 54.471C36.5458 54.2865 35.9219 54.1663 35.2601 54.1105C34.6173 54.0512 33.8327 53.9979 32.9062 53.9503C34.0784 50.9592 34.8253 48.0241 35.1467 45.1449L38.8052 44.8441C38.5973 47.1081 38.3137 49.1262 37.9544 50.8985C38.446 50.7924 38.758 50.6701 38.8903 50.5315C39.0416 50.3896 39.1172 50.2034 39.1172 49.973V43.925L34.2392 44.7868V39.8908L37.9544 39.2345V33.1865L43.4848 32.2094V33.3902L48.5614 32.4933V36.7269L43.4848 37.6238V38.2574L49.9794 37.11V38.6652L52.5886 36.2746L49.3271 36.8508V31.638L60.6147 29.6438C60.5013 32.7551 60.2082 35.5428 59.7355 38.0071C59.2628 40.4715 58.5822 42.6557 57.6935 44.5599C58.8091 45.2268 60.038 45.6625 61.3804 45.8669ZM52.702 36.2546C52.9856 37.9517 53.4489 39.4154 54.0917 40.6458C54.5266 39.2634 54.8196 37.666 54.9709 35.8537L52.702 36.2546ZM82.651 41.245V37.501L88.777 36.4187V46.1531L82.651 47.2354V46.8034L68.9244 49.2285V49.6605L62.7985 50.7428V41.0084L68.9244 39.9261V43.6701L72.668 43.0087V38.2567L63.3941 39.8952V29.6136L69.52 28.5313V33.2257L72.668 32.6695V27.3703L78.9074 26.268V31.5672L82.0555 31.011V26.3166L88.1814 25.2344V35.516L78.9074 37.1544V41.9064L82.651 41.245ZM99.6675 22.6867L99.6391 23.5557C99.5446 25.6268 99.4312 27.2692 99.2988 28.483C99.1854 29.6743 98.9774 30.7862 98.6749 31.8189V44.6925L92.3221 45.8148V39.594C92.0195 39.8011 91.6792 39.986 91.3011 40.1488C91.1498 38.4475 90.9796 37.0952 90.7906 36.0918C90.6015 35.0884 90.2234 33.9936 89.6561 32.8074C90.5259 32.6538 91.2065 32.4183 91.6981 32.101C92.1897 31.7838 92.5206 31.4469 92.6907 31.0905C92.842 30.7182 92.9176 29.7256 92.9176 28.1128C92.9176 26.7304 92.8609 25.3196 92.7475 23.8805L99.6675 22.6867ZM117.875 32.9483L112.316 33.9304V36.3208L117.62 35.3838V41.0286L99.7526 44.1853V38.5405L105.708 37.4882V35.0978L99.7526 36.1501V30.6205L105.708 29.5682V28.0706C103.61 28.5182 102.078 28.8368 101.114 29.0263L100.915 27.823C100.594 25.8254 100.273 24.4422 99.9511 23.6734C105.964 22.5343 111.655 21.1737 117.024 19.5914C116.949 20.2192 116.911 21.0611 116.911 22.1171C116.911 23.3075 116.939 24.3201 116.996 25.1548C115.937 25.4763 114.377 25.9151 112.316 26.4712V28.4008L117.875 27.4187V32.9483ZM145.385 26.4465C145.404 26.8655 145.413 27.5551 145.413 28.5151C145.413 30.3775 145.338 32.1572 145.187 33.8543C145.13 34.5364 144.894 35.0965 144.478 35.5348C144.062 35.9731 143.428 36.3538 142.577 36.6769C141.745 36.9775 140.554 37.2935 139.004 37.625L138.777 37.0603C138.626 36.6838 138.456 36.2819 138.267 35.8545C138.077 35.4271 137.869 35.0511 137.643 34.7263C136.659 36.1288 135.449 37.4082 134.012 38.5645C133.445 37.2823 132.698 36.0991 131.772 35.0147C131.677 35.569 131.592 35.9681 131.517 36.2118C130.533 35.9823 129.465 35.8543 128.312 35.8276V36.6052C128.312 37.5268 127.868 38.3061 126.979 38.9431C126.109 39.5576 124.644 40.0853 122.583 40.5262C122.526 40.3826 122.394 40.0316 122.186 39.4731C121.997 38.8921 121.732 38.3341 121.392 37.799C120.825 38.552 120.361 39.133 120.002 39.5421C119.7 38.002 119.435 36.7623 119.208 35.8232C119 34.8808 118.726 33.998 118.386 33.1749C119.123 32.7758 119.728 32.3137 120.201 31.7886C120.673 31.2443 121.052 30.6111 121.335 29.889L119.038 30.2949V26.3205L121.335 25.9146L120.343 24.6788L123.519 23.1384L119.151 23.91V19.446L132.027 17.1712L132.538 19.7018C133.559 18.7535 134.173 17.5697 134.381 16.1506L138.437 15.434L138.267 16.4433L146.066 15.0654V19.2414L142.464 19.8778L144.506 20.2946C144.033 20.9541 143.608 21.5093 143.23 21.9601C144.137 21.9149 145.168 21.8193 146.321 21.6731C146 22.4019 145.763 23.1061 145.612 23.7856C145.461 24.4459 145.281 25.3512 145.073 26.5016L145.385 26.4465ZM124.88 22.8979C125.145 23.2159 125.41 23.582 125.674 23.996C126.166 23.4292 126.563 22.9462 126.866 22.5472L124.88 22.8979ZM138.947 21.2479C139.231 20.9482 139.467 20.6568 139.656 20.3738L138.096 20.6494C138.38 20.8873 138.664 21.0868 138.947 21.2479ZM133.133 24.291C132.887 23.3745 132.547 22.5418 132.112 21.793C131.715 22.3432 131.063 23.1976 130.155 24.3563L132.311 23.9755L132.481 24.8095L133.19 24.5114C134.362 24.0739 135.27 23.6928 135.913 23.368C135.724 23.1518 135.459 22.8242 135.118 22.3851C134.646 22.891 133.984 23.5263 133.133 24.291ZM131.97 33.9717C133.143 33.611 134.069 33.0441 134.75 32.271L133.133 32.5566V28.611L133.927 28.4707C133.644 27.484 133.209 26.5337 132.623 25.6196L133.02 27.6519C132.793 29.2856 132.443 31.3921 131.97 33.9717ZM140.337 26.1575C139.902 26.0232 139.486 25.8567 139.089 25.658C138.654 25.9652 138.134 26.2971 137.529 26.6536L140.337 26.1575ZM143.286 26.8172C142.436 26.718 141.566 26.5356 140.677 26.2702C140.639 26.7377 140.602 27.0804 140.564 27.2983L143.286 26.8172ZM124.795 29.8825L128.312 29.2612V32.2852L128.936 28.5462L124.965 29.2477L124.795 29.8825ZM136.31 28.0498L136.366 27.3198L135.657 27.7043C135.468 27.7953 135.27 27.9072 135.062 28.0399C134.854 28.1535 134.617 28.272 134.353 28.3956L136.31 28.0498ZM122.498 36.0196C122.99 35.9519 123.301 35.8776 123.434 35.7966C123.566 35.7157 123.632 35.5888 123.632 35.416V33.544C123.311 34.3879 122.933 35.2132 122.498 36.0196ZM140.365 31.2789L139.429 31.4443C139.202 32.0412 138.881 32.7028 138.465 33.429C139.221 33.2378 139.722 33.0245 139.968 32.7891C140.233 32.5503 140.365 32.2293 140.365 31.8261V31.2789Z" fill="#73DB6A"/>
</svg>
